<svg width="53" height="54" viewBox="0 0 53 54" fill="none" xmlns="http://www.w3.org/2000/svg">
<path d="M38.9481 49.0102C36.416 49.0102 32.8011 46.6612 30.9282 49.8315C29.5785 53.0436 25.477 55.4658 22.6259 51.8927C18.5401 43.5223 12.9006 53.0175 5.57653 46.4153C0.878665 42.8475 0.130564 35.3874 4.04894 30.9459C4.67671 30.1769 4.68718 30.0879 3.91292 29.3764C-5.15322 22.4081 2.9451 6.62478 13.8527 10.4176C14.3759 10.6269 15.1763 11.0872 15.2391 10.1456C15.5791 4.74668 19.5289 0.535345 24.9853 0.0802067C26.4224 -0.0974659 27.8806 0.0207748 29.2703 0.427654C30.66 0.834534 31.9517 1.52145 33.0661 2.44614C34.1804 3.37083 35.0937 4.51373 35.7499 5.80455C36.4061 7.09537 36.7912 8.50679 36.8816 9.95199C37.002 10.7419 37.1537 10.9198 37.8861 10.6112C42.155 8.82723 46.9051 10.5641 49.5994 13.8233C53.5282 18.3276 53.0574 25.7667 48.1764 29.3869C47.5015 29.9101 47.4754 30.2658 48.0195 30.9197C54.1507 37.9613 48.3804 49.549 38.9481 49.0102ZM26.1571 13.8599C16.1075 13.3368 7.37615 25.5732 12.8169 34.3568C12.6599 17.8411 32.0687 14.1633 33.7428 27.0903C33.7846 30.5378 30.6876 33.8912 27.0674 33.2059C22.9973 32.3636 23.102 28.2621 25.0114 25.2122C15.7517 29.5386 19.4452 43.5223 30.2011 41.3827C46.2146 37.7625 42.1864 13.4309 26.1571 13.8599Z" fill="#012F25"/>
</svg>
