<svg width="116" height="49" viewBox="0 0 116 49" fill="none" xmlns="http://www.w3.org/2000/svg">
<path d="M35.5628 44.7503C33.2508 44.7503 29.9501 42.6055 28.24 45.5002C27.0076 48.4332 23.2626 50.6448 20.6593 47.3823C16.9286 39.7395 11.7793 48.4093 5.09183 42.381C0.802293 39.1233 0.119216 32.3116 3.69701 28.2561C4.27022 27.5539 4.27978 27.4727 3.57281 26.8231C-4.70531 20.4605 2.68911 6.04896 12.6487 9.51212C13.1263 9.70319 13.8572 10.1235 13.9145 9.26373C14.225 4.33411 17.8314 0.488814 22.8136 0.0732353C24.1258 -0.0889943 25.4573 0.0189691 26.7262 0.390483C27.9951 0.761998 29.1746 1.38921 30.192 2.23352C31.2095 3.07784 32.0435 4.12141 32.6426 5.30003C33.2418 6.47865 33.5934 7.7674 33.676 9.08699C33.7858 9.80828 33.9244 9.97069 34.5931 9.68886C38.4909 8.05998 42.8282 9.64587 45.2883 12.6218C48.8756 16.7346 48.4457 23.5271 43.989 26.8327C43.3728 27.3103 43.3489 27.6352 43.8457 28.2323C49.4441 34.6618 44.1753 45.2423 35.5628 44.7503ZM23.8836 12.6552C14.7074 12.1776 6.73503 23.3504 11.7029 31.3706C11.5596 16.2903 29.2813 12.9323 30.8099 24.7357C30.8481 27.8835 28.0203 30.9455 24.7148 30.3197C20.9984 29.5506 21.094 25.8057 22.8375 23.0208C14.3826 26.9712 17.755 39.7395 27.576 37.7858C42.1977 34.4803 38.5196 12.2635 23.8836 12.6552Z" fill="#EAFFF0"/>
<path d="M55.7444 20.1834L55.0947 24.2962H53.0933L54.9801 12.4307H59.2314C64.7772 12.5692 64.2136 21.4779 55.7444 20.1834ZM56.6997 14.2268L56.031 18.3826C57.8891 18.4638 60.8985 18.5975 60.7409 16.0276C60.8651 13.9067 58.1375 14.2124 56.6854 14.2268H56.6997Z" fill="#EAFFF0"/>
<path d="M68.5415 18.01C64.7726 17.3794 65.064 21.8027 64.5624 24.2962H62.6517L63.9271 16.2521H65.6993L65.6324 17.4893C66.1722 16.3477 67.6005 15.8748 68.8329 16.2044L68.5415 18.01Z" fill="#EAFFF0"/>
<path d="M73.0844 16.061C79.0315 16.0276 77.331 24.836 72.2055 24.4873C66.2728 24.5207 67.9972 15.7171 73.0844 16.061ZM72.3202 22.8011C75.0238 23.0495 76.2419 17.7616 72.9889 17.7329C70.3091 17.4797 69.0433 22.7724 72.3393 22.8011H72.3202Z" fill="#EAFFF0"/>
<path d="M75.5728 26.3407C76.4517 26.6129 77.173 26.398 77.3115 25.2181L78.7446 16.2712H80.6553L79.2222 25.4331C78.9213 27.8501 77.0727 28.6622 75.1285 28.0316L75.5728 26.3407ZM78.9499 13.6584C78.864 12.2779 81.238 11.6664 81.2906 13.2858C81.3622 14.6567 79.0073 15.2968 78.9499 13.6584Z" fill="#EAFFF0"/>
<path d="M81.1764 20.8999C80.8706 14.9528 90.4624 14.1503 88.9052 20.7232H83.0106C82.7336 23.1975 86.0487 23.5892 86.8941 21.6785H88.7762C87.6966 25.562 80.9184 25.4092 81.1764 20.8999ZM83.2208 19.5051H87.1999C87.5581 16.8158 83.6794 17.2409 83.2208 19.5051Z" fill="#EAFFF0"/>
<path d="M94.1685 16.0611C96.2799 16.0611 97.56 17.2123 97.6269 19.1803H95.7162C95.186 16.3524 91.3311 18.1007 91.6607 20.7853C91.5079 23.2405 94.7465 23.4364 95.4105 21.3537H97.3594C96.5378 25.5477 89.4969 25.5668 89.7166 20.876C89.6879 18.1628 91.6368 16.0611 94.1685 16.0611Z" fill="#EAFFF0"/>
<path d="M98.7495 24.2962L99.7527 17.8619H98.2289L98.4868 16.2712H100.015L100.402 13.7873H102.313L101.926 16.2712H103.45L103.178 17.8619H101.649L100.646 24.2962H98.7495Z" fill="#EAFFF0"/>
<path d="M53.3228 34.5471C52.6301 27.5587 63.5832 24.3296 64.4622 31.6811H62.3508C61.1089 27.2052 54.8704 30.0522 55.4341 34.4277C55.1666 38.3829 60.5978 38.9752 61.8158 35.6123H64.0084C62.4941 41.5355 52.9836 40.9814 53.3228 34.5471Z" fill="#EAFFF0"/>
<path d="M64.577 39.5818L66.4877 27.4966H68.3984L66.4877 39.5818H64.577Z" fill="#EAFFF0"/>
<path d="M69.497 31.5378H71.4078L70.1419 39.5627H68.2312L69.497 31.5378ZM69.712 28.9249C69.6165 27.5539 72.0001 26.9234 72.0669 28.5523C72.129 29.9375 69.7693 30.5824 69.712 28.944V28.9249Z" fill="#EAFFF0"/>
<path d="M71.8518 39.5818L73.1224 31.5378H74.8755V32.4931C75.8977 30.9407 78.9835 30.7735 79.5233 32.8036C80.8464 30.2815 85.4847 31.0935 84.8303 34.3131L84.0182 39.5675H82.1075C81.9929 38.2252 84.1806 32.9135 81.52 33.0233C79.0026 32.8179 79.3895 38.0246 78.8736 39.5675H76.9629C76.8579 38.2396 79.0456 32.9517 76.4136 33.0377C73.858 32.8227 74.2688 38.0151 73.7482 39.5675L71.8518 39.5818Z" fill="#EAFFF0"/>
<path d="M85.7382 36.1855C85.4325 30.2385 95.029 29.436 93.4718 36.0088H87.5725C87.2955 38.4832 90.6105 38.8749 91.456 36.9642H93.3381C92.2585 40.8477 85.5042 40.6948 85.7382 36.1855ZM87.7875 34.7907H91.7665C92.12 32.1014 88.2413 32.5265 87.7875 34.7907Z" fill="#EAFFF0"/>
<path d="M95.712 37.1743C95.6021 38.6551 98.6067 38.6551 98.5781 37.3224C98.3249 35.6697 94.513 36.5104 94.6516 33.8975C94.3936 30.6445 100.986 30.4248 100.756 33.8975H98.922C99.0844 32.4645 96.419 32.3976 96.4667 33.6873C96.7677 35.4069 100.637 34.6427 100.412 37.0979C100.732 40.4416 93.6771 40.6996 93.8873 37.16L95.712 37.1743Z" fill="#EAFFF0"/>
<path d="M101.267 36.1855C100.961 30.2385 110.553 29.436 108.996 36.0088H103.101C102.824 38.4832 106.139 38.8749 106.985 36.9642H108.867C107.802 40.8477 101.024 40.6948 101.267 36.1855ZM103.312 34.7907H107.291C107.663 32.1014 103.785 32.5265 103.326 34.7907H103.312Z" fill="#EAFFF0"/>
<path d="M110.343 39.5818L111.351 33.1475H109.823L110.085 31.5569H111.609L112.001 29.0729H113.911L113.52 31.5569H115.048L114.786 33.1475H113.262L112.254 39.5818H110.343Z" fill="#EAFFF0"/>
</svg>
