<svg width="19" height="19" viewBox="0 0 19 19" fill="none" xmlns="http://www.w3.org/2000/svg">
<path opacity="0.8" d="M14.1684 17.3522C13.2473 17.3522 11.9323 16.5205 11.251 17.643C10.76 18.7802 9.26798 19.6378 8.23079 18.3727C6.74448 15.4092 4.69294 18.771 2.02862 16.4335C0.319639 15.1702 0.0474963 12.529 1.47291 10.9565C1.70128 10.6842 1.70509 10.6527 1.42343 10.4008C-1.87463 7.93365 1.07136 2.34552 5.03931 3.68837C5.22962 3.76246 5.52079 3.92546 5.54363 3.59206C5.66733 1.68057 7.10416 0.18954 9.08909 0.0283974C9.61187 -0.034508 10.1423 0.00735535 10.6479 0.151412C11.1534 0.295469 11.6233 0.538672 12.0287 0.86606C12.4341 1.19345 12.7663 1.5981 13.005 2.05511C13.2437 2.51213 13.3838 3.01185 13.4167 3.52353C13.4605 3.80321 13.5157 3.86618 13.7821 3.7569C15.335 3.1253 17.063 3.74023 18.0431 4.89416C19.4724 6.48892 19.3011 9.12277 17.5255 10.4045C17.28 10.5897 17.2705 10.7157 17.4684 10.9472C19.6988 13.4403 17.5997 17.5429 14.1684 17.3522ZM9.51538 4.90713C5.85954 4.72191 2.68328 9.05424 4.66249 12.1641C4.6054 6.31666 11.6659 5.01456 12.2749 9.59138C12.2901 10.812 11.1635 11.9993 9.84652 11.7566C8.36591 11.4584 8.40397 10.0063 9.0986 8.92643C5.73013 10.4582 7.07371 15.4092 10.9865 14.6516C16.8118 13.3699 15.3465 4.75525 9.51538 4.90713Z" fill="white"/>
</svg>
